<svg width="191" height="189" viewBox="0 0 191 189" fill="none" xmlns="http://www.w3.org/2000/svg">
<path d="M142.5 103.9C144.8 103.9 146.65 103.6 148.05 103C149.55 102.4 150.3 101.75 150.3 101.05C150.3 99.65 147.6 98.95 142.2 98.95C136.8 98.95 131.4 99.4 126 100.3C129.8 102.7 135.3 103.9 142.5 103.9ZM75.15 142.6V144.1C76.35 143.4 80.05 141.2 86.25 137.5C92.45 133.8 97.15 131.05 100.35 129.25C95.55 126.65 89.75 124.6 82.95 123.1C77.75 129.5 75.15 136 75.15 142.6ZM98.1 161.05C103 161.05 107.9 160.4 112.8 159.1C114.3 156.1 115.05 153 115.05 149.8C115.05 142.7 111.25 136.55 103.65 131.35C102.15 132.25 99.5 133.9 95.7 136.3C88.3 141.1 81.7 145.1 75.9 148.3C78.6 156.8 86 161.05 98.1 161.05ZM143.1 130.6C143.1 127.6 142 125.2 139.8 123.4C137.6 121.6 133.95 120.7 128.85 120.7C123.75 120.7 116.05 123.8 105.75 130C113.45 135.5 117.3 142.05 117.3 149.65C117.3 152.65 116.7 155.5 115.5 158.2C123.6 155.6 130.2 151.6 135.3 146.2C140.5 140.7 143.1 135.5 143.1 130.6ZM186.75 54.7C186.75 50.1 181.75 47.8 171.75 47.8C164.05 47.8 156.15 50.15 148.05 54.85C139.95 59.45 133.35 65.05 128.25 71.65C123.15 78.15 120.55 84.15 120.45 89.65C131.55 88.55 142.35 85.85 152.85 81.55C163.45 77.25 171.75 72.65 177.75 67.75C183.75 62.75 186.75 58.4 186.75 54.7ZM79.35 63.7C87.35 63.7 95.3 62.55 103.2 60.25C111.1 57.95 117.8 55.15 123.3 51.85C128.9 48.55 133.45 45.05 136.95 41.35C140.45 37.55 142.2 34.15 142.2 31.15C142.2 25.75 136.85 23.05 126.15 23.05C112.65 23.05 100.85 27.35 90.75 35.95C80.75 44.45 75.25 53.65 74.25 63.55C75.35 63.65 77.05 63.7 79.35 63.7ZM56.7 120.55C39.8 120.55 26.75 123.2 17.55 128.5C8.45 133.8 3.9 139.75 3.9 146.35C3.9 150.55 5.9 154.1 9.9 157C13.9 159.9 19.35 161.35 26.25 161.35C38.05 161.35 52.05 156.9 68.25 148C67.85 146.7 67.65 145.15 67.65 143.35C67.65 136.35 70.85 129.25 77.25 122.05C70.45 121.05 63.6 120.55 56.7 120.55ZM84.45 121.3C91.35 122.7 97.4 124.95 102.6 128.05C114 121.95 123 118.9 129.6 118.9C136.3 118.9 141.2 120 144.3 122.2C147.4 124.4 148.95 127.3 148.95 130.9C148.95 136.5 145.7 142.3 139.2 148.3C132.7 154.2 124.35 158.4 114.15 160.9C110.95 166.9 105.35 172.3 97.35 177.1C89.35 181.9 79.35 185.55 67.35 188.05L67.2 186.1C78.3 183.6 87.55 180.2 94.95 175.9C102.45 171.7 107.9 166.95 111.3 161.65C106.1 162.65 101.15 163.15 96.45 163.15C82.65 163.15 73.7 159.3 69.6 151.6C53.9 159.2 38.7 163 24 163C16.6 163 10.75 161.45 6.45 158.35C2.15 155.25 0 151.4 0 146.8C0 139.6 5.1 133.15 15.3 127.45C25.5 121.65 40.2 118.75 59.4 118.75C66.9 118.75 73.45 119.25 79.05 120.25C89.25 109.85 103.5 102.85 121.8 99.25C119.8 97.35 118.3 95 117.3 92.2C115.3 92.4 112.35 92.5 108.45 92.5C95.95 92.5 86.6 90.1 80.4 85.3C74.3 80.4 71.25 74.15 71.25 66.55V65.2C61.15 64.3 53.6 61.75 48.6 57.55C43.7 53.35 41.25 48.2 41.25 42.1C41.25 33.5 45.45 25.05 53.85 16.75C62.35 8.34999 73 2.89999 85.8 0.399996L86.25 2.64999C75.05 4.55 65.6 9.45 57.9 17.35C50.2 25.25 46.35 33.35 46.35 41.65C46.35 47.25 48.4 52.05 52.5 56.05C56.7 59.95 63 62.35 71.4 63.25C72.6 52.45 78.55 42.55 89.25 33.55C99.95 24.55 112.55 20.05 127.05 20.05C138.85 20.05 144.75 23.45 144.75 30.25C144.75 33.65 143.05 37.35 139.65 41.35C136.35 45.35 131.85 49.15 126.15 52.75C120.55 56.35 113.45 59.35 104.85 61.75C96.35 64.15 87.45 65.35 78.15 65.35H74.1V66.1C74.1 73.1 77.05 78.85 82.95 83.35C88.95 87.85 98 90.1 110.1 90.1C113 90.1 115.2 90.05 116.7 89.95C116.4 88.45 116.25 86.9 116.25 85.3C116.25 80.8 117.5 76.25 120 71.65C122.5 67.05 126.05 62.8 130.65 58.9C135.25 55 141.25 51.8 148.65 49.3C156.05 46.8 164.2 45.55 173.1 45.55C184.8 45.55 190.65 48.25 190.65 53.65C190.65 57.75 187.45 62.5 181.05 67.9C174.65 73.3 165.85 78.3 154.65 82.9C143.55 87.5 132.15 90.45 120.45 91.75C120.95 94.55 122.2 96.9 124.2 98.8C130.8 97.7 137.4 97.15 144 97.15C150.7 97.15 154.05 98.2 154.05 100.3C154.05 101.6 152.75 102.85 150.15 104.05C147.55 105.25 144.6 105.85 141.3 105.85C133.7 105.85 127.75 104.15 123.45 100.75C106.75 103.95 93.75 110.8 84.45 121.3Z" fill="black"/>
</svg>
